<svg width="89" height="89" viewBox="0 0 89 89" fill="none" xmlns="http://www.w3.org/2000/svg">
<path d="M88.373 40.9873C88.3167 40.0745 88.0065 39.1956 87.4774 38.4496C86.9483 37.7037 86.2213 37.1204 85.3784 36.7654L74.8236 32.249L85.9184 25.8672C86.705 25.4147 87.3508 24.7532 87.7841 23.9559C88.2174 23.1586 88.4213 22.2569 88.373 21.3507C88.3167 20.4379 88.0065 19.559 87.4774 18.8131C86.9483 18.0671 86.2213 17.4838 85.3784 17.1289L46.1046 0.38873C45.4989 0.132193 44.8478 0 44.19 0C43.5322 0 42.8811 0.132193 42.2754 0.38873L3.00157 17.1289C2.1587 17.4838 1.43173 18.0671 0.902624 18.8131C0.373513 19.559 0.0632954 20.4379 0.00694287 21.3507C-0.0412954 22.2569 0.162556 23.1586 0.595861 23.9559C1.02917 24.7532 1.67497 25.4147 2.46156 25.8672L13.5564 32.249L3.00157 36.7654C2.1587 37.1204 1.43173 37.7037 0.902624 38.4496C0.373513 39.1956 0.0632954 40.0745 0.00694287 40.9873C-0.0412954 41.8934 0.162556 42.7952 0.595861 43.5924C1.02917 44.3897 1.67497 45.0513 2.46156 45.5037L13.5564 51.8856L3.00157 56.402C2.1587 56.7569 1.43173 57.3402 0.902624 58.0862C0.373513 58.8321 0.0632954 59.7111 0.00694287 60.6239C-0.0412954 61.53 0.162556 62.4317 0.595861 63.229C1.02917 64.0263 1.67497 64.6878 2.46156 65.1403L41.7354 87.7223C42.4817 88.1532 43.3282 88.38 44.19 88.38C45.0517 88.38 45.8983 88.1532 46.6446 87.7223L85.9184 65.1403C86.705 64.6878 87.3508 64.0263 87.7841 63.229C88.2174 62.4317 88.4213 61.53 88.373 60.6239C88.3167 59.7111 88.0065 58.8321 87.4774 58.0862C86.9483 57.3402 86.2213 56.7569 85.3784 56.402L74.8236 51.8856L85.9184 45.5037C86.705 45.0513 87.3508 44.3897 87.7841 43.5924C88.2174 42.7952 88.4213 41.8934 88.373 40.9873ZM44.19 10.2561L72.4672 22.2835L44.19 38.5327L15.9128 22.2835L44.19 10.2561ZM41.7354 48.4492C42.4817 48.8801 43.3282 49.1069 44.19 49.1069C45.0517 49.1069 45.8983 48.8801 46.6446 48.4492L64.1706 38.6309L72.4672 42.1655L44.19 58.1693L15.9128 41.92L24.2094 38.3855L41.7354 48.4492ZM72.4672 61.5566L44.19 77.8058L15.9128 61.5566L24.2094 58.022L41.7354 68.0857C42.4817 68.5166 43.3282 68.7434 44.19 68.7434C45.0517 68.7434 45.8983 68.5166 46.6446 68.0857L64.1706 58.022L72.4672 61.5566Z" fill="currentColor"/>
</svg>
