<svg width="86" height="86" viewBox="0 0 86 86" fill="none" xmlns="http://www.w3.org/2000/svg">
<path d="M49.5574 68.0833C49.0221 68.0851 48.4932 67.967 48.0095 67.7376C47.5258 67.5081 47.0997 67.1732 46.7624 66.7575L29.4549 45.2575C28.9279 44.6163 28.6398 43.8121 28.6398 42.9821C28.6398 42.1521 28.9279 41.3478 29.4549 40.7067L47.3716 19.2067C47.9798 18.4749 48.8538 18.0147 49.8014 17.9273C50.7489 17.84 51.6923 18.1326 52.4241 18.7408C53.1559 19.3491 53.6161 20.2231 53.7034 21.1706C53.7908 22.1181 53.4982 23.0615 52.8899 23.7933L36.8724 43L52.3524 62.2067C52.7906 62.7326 53.069 63.3731 53.1545 64.0523C53.2401 64.7316 53.1293 65.4211 52.8353 66.0393C52.5412 66.6575 52.0763 67.1786 51.4954 67.5408C50.9145 67.9031 50.242 68.0913 49.5574 68.0833Z" fill="black"/>
</svg>
