<svg width="79" height="79" viewBox="0 0 79 79" fill="none" xmlns="http://www.w3.org/2000/svg">
<path d="M59.0389 13.1198H55.759V9.83981C55.759 8.96992 55.4134 8.13565 54.7983 7.52055C54.1832 6.90544 53.3489 6.55988 52.479 6.55988C51.6091 6.55988 50.7749 6.90544 50.1598 7.52055C49.5447 8.13565 49.1991 8.96992 49.1991 9.83981V13.1198H29.5195V9.83981C29.5195 8.96992 29.1739 8.13565 28.5588 7.52055C27.9437 6.90544 27.1094 6.55988 26.2395 6.55988C25.3696 6.55988 24.5354 6.90544 23.9203 7.52055C23.3052 8.13565 22.9596 8.96992 22.9596 9.83981V13.1198H19.6797C17.07 13.1198 14.5672 14.1564 12.7219 16.0018C10.8765 17.8471 9.83984 20.3499 9.83984 22.9596V62.3188C9.83984 64.9285 10.8765 67.4313 12.7219 69.2766C14.5672 71.1219 17.07 72.1586 19.6797 72.1586H59.0389C61.6486 72.1586 64.1514 71.1219 65.9967 69.2766C67.842 67.4313 68.8787 64.9285 68.8787 62.3188V22.9596C68.8787 20.3499 67.842 17.8471 65.9967 16.0018C64.1514 14.1564 61.6486 13.1198 59.0389 13.1198ZM26.2395 55.7589C25.5908 55.7589 24.9567 55.5666 24.4173 55.2062C23.8779 54.8458 23.4575 54.3335 23.2093 53.7342C22.961 53.1348 22.8961 52.4754 23.0226 51.8391C23.1492 51.2029 23.4616 50.6184 23.9203 50.1597C24.379 49.701 24.9634 49.3886 25.5996 49.2621C26.2359 49.1355 26.8954 49.2005 27.4947 49.4487C28.094 49.697 28.6063 50.1174 28.9667 50.6568C29.3271 51.1961 29.5195 51.8303 29.5195 52.479C29.5195 53.3489 29.1739 54.1832 28.5588 54.7983C27.9437 55.4134 27.1094 55.7589 26.2395 55.7589ZM52.479 55.7589H39.3593C38.4894 55.7589 37.6551 55.4134 37.04 54.7983C36.4249 54.1832 36.0793 53.3489 36.0793 52.479C36.0793 51.6091 36.4249 50.7748 37.04 50.1597C37.6551 49.5446 38.4894 49.1991 39.3593 49.1991H52.479C53.3489 49.1991 54.1832 49.5446 54.7983 50.1597C55.4134 50.7748 55.759 51.6091 55.759 52.479C55.759 53.3489 55.4134 54.1832 54.7983 54.7983C54.1832 55.4134 53.3489 55.7589 52.479 55.7589ZM62.3188 36.0793H16.3997V22.9596C16.3997 22.0897 16.7453 21.2554 17.3604 20.6403C17.9755 20.0252 18.8098 19.6796 19.6797 19.6796H22.9596V22.9596C22.9596 23.8295 23.3052 24.6637 23.9203 25.2788C24.5354 25.8939 25.3696 26.2395 26.2395 26.2395C27.1094 26.2395 27.9437 25.8939 28.5588 25.2788C29.1739 24.6637 29.5195 23.8295 29.5195 22.9596V19.6796H49.1991V22.9596C49.1991 23.8295 49.5447 24.6637 50.1598 25.2788C50.7749 25.8939 51.6091 26.2395 52.479 26.2395C53.3489 26.2395 54.1832 25.8939 54.7983 25.2788C55.4134 24.6637 55.759 23.8295 55.759 22.9596V19.6796H59.0389C59.9088 19.6796 60.7431 20.0252 61.3582 20.6403C61.9733 21.2554 62.3188 22.0897 62.3188 22.9596V36.0793Z" fill="currentColor"/>
</svg>
