<svg width="86" height="86" viewBox="0 0 86 86" fill="none" xmlns="http://www.w3.org/2000/svg">
<path d="M43.0002 7.16669C35.9131 7.16669 28.985 9.26828 23.0923 13.2057C17.1995 17.1431 12.6067 22.7395 9.89454 29.2872C7.1824 35.8349 6.47278 43.0398 7.85541 49.9908C9.23805 56.9417 12.6508 63.3266 17.6622 68.338C22.6736 73.3494 29.0585 76.7622 36.0095 78.1448C42.9605 79.5275 50.1654 78.8179 56.713 76.1057C63.2607 73.3936 68.8571 68.8007 72.7945 62.908C76.732 57.0152 78.8335 50.0872 78.8335 43C78.8335 38.2943 77.9067 33.6347 76.1059 29.2872C74.3051 24.9397 71.6656 20.9895 68.3382 17.662C65.0108 14.3346 61.0605 11.6951 56.713 9.89434C52.3655 8.09354 47.7059 7.16669 43.0002 7.16669ZM58.4086 34.4359L42.0327 55.9359C41.6989 56.3695 41.2702 56.7209 40.7795 56.9632C40.2888 57.2054 39.7491 57.332 39.2019 57.3334C38.6576 57.3363 38.1198 57.2152 37.6293 56.9793C37.1388 56.7433 36.7085 56.3988 36.3711 55.9717L27.6277 44.8275C27.3383 44.4558 27.125 44.0307 26.9999 43.5765C26.8748 43.1223 26.8403 42.6479 26.8986 42.1804C26.9568 41.7129 27.1065 41.2614 27.3392 40.8518C27.5719 40.4421 27.8831 40.0823 28.2548 39.7929C29.0056 39.2085 29.9578 38.9462 30.902 39.0638C31.3695 39.122 31.8209 39.2718 32.2306 39.5045C32.6402 39.7372 33 40.0483 33.2894 40.42L39.1302 47.8734L52.6752 29.9567C52.9623 29.5802 53.3207 29.264 53.7299 29.026C54.1392 28.7881 54.5913 28.6331 55.0605 28.5699C55.5296 28.5066 56.0067 28.5365 56.4643 28.6576C56.922 28.7787 57.3513 28.9888 57.7277 29.2759C58.1042 29.5629 58.4204 29.9213 58.6584 30.3306C58.8963 30.7398 59.0513 31.1919 59.1145 31.6611C59.1778 32.1303 59.148 32.6073 59.0268 33.0649C58.9057 33.5226 58.6956 33.9519 58.4086 34.3284V34.4359Z" fill="#52B788"/>
</svg>
