<svg width="89" height="89" viewBox="0 0 89 89" fill="none" xmlns="http://www.w3.org/2000/svg">
<path d="M55.2349 58.9172H33.1409C32.1643 58.9172 31.2277 59.3052 30.5371 59.9958C29.8466 60.6863 29.4586 61.6229 29.4586 62.5996C29.4586 63.5762 29.8466 64.5128 30.5371 65.2034C31.2277 65.8939 32.1643 66.2819 33.1409 66.2819H55.2349C56.2115 66.2819 57.1481 65.8939 57.8387 65.2034C58.5293 64.5128 58.9172 63.5762 58.9172 62.5996C58.9172 61.6229 58.5293 60.6863 57.8387 59.9958C57.1481 59.3052 56.2115 58.9172 55.2349 58.9172Z" fill="black"/>
<path d="M33.1409 51.5526H44.1879C45.1645 51.5526 46.1011 51.1647 46.7917 50.4741C47.4823 49.7835 47.8702 48.8469 47.8702 47.8703C47.8702 46.8937 47.4823 45.9571 46.7917 45.2665C46.1011 44.5759 45.1645 44.188 44.1879 44.188H33.1409C32.1643 44.188 31.2277 44.5759 30.5371 45.2665C29.8466 45.9571 29.4586 46.8937 29.4586 47.8703C29.4586 48.8469 29.8466 49.7835 30.5371 50.4741C31.2277 51.1647 32.1643 51.5526 33.1409 51.5526Z" fill="black"/>
<path d="M72.6891 30.6738L52.6572 8.57984C52.313 8.19838 51.8927 7.8932 51.4234 7.68392C50.9541 7.47464 50.4462 7.36589 49.9323 7.36468H24.1561C22.9326 7.35008 21.7183 7.57663 20.5824 8.03138C19.4465 8.48614 18.4113 9.16019 17.5359 10.015C16.6605 10.8699 15.9621 11.8888 15.4806 13.0136C14.999 14.1384 14.7437 15.347 14.7293 16.5705V71.8053C14.7437 73.0288 14.999 74.2374 15.4806 75.3622C15.9621 76.487 16.6605 77.5059 17.5359 78.3608C18.4113 79.2156 19.4465 79.8897 20.5824 80.3444C21.7183 80.7992 22.9326 81.0257 24.1561 81.0112H64.2197C65.4432 81.0257 66.6575 80.7992 67.7934 80.3444C68.9293 79.8897 69.9645 79.2156 70.8399 78.3608C71.7153 77.5059 72.4137 76.487 72.8952 75.3622C73.3768 74.2374 73.6321 73.0288 73.6465 71.8053V33.1409C73.6441 32.2283 73.3029 31.3491 72.6891 30.6738ZM51.5525 18.4116L61.6421 29.4586H54.2775C53.8919 29.4353 53.5147 29.3355 53.1681 29.1649C52.8215 28.9943 52.5124 28.7564 52.2587 28.465C52.0051 28.1736 51.812 27.8347 51.6907 27.4679C51.5695 27.1011 51.5225 26.7138 51.5525 26.3286V18.4116ZM64.2197 73.6465H24.1561C23.8997 73.6614 23.6429 73.6256 23.4004 73.5411C23.1578 73.4566 22.9344 73.325 22.7428 73.154C22.5513 72.9829 22.3953 72.7757 22.284 72.5443C22.1726 72.3129 22.1081 72.0618 22.094 71.8053V16.5705C22.1081 16.3141 22.1726 16.0629 22.284 15.8315C22.3953 15.6001 22.5513 15.3929 22.7428 15.2219C22.9344 15.0508 23.1578 14.9193 23.4004 14.8347C23.6429 14.7502 23.8997 14.7144 24.1561 14.7293H44.1879V26.3286C44.1285 29.0411 45.1444 31.667 47.014 33.6332C48.8835 35.5993 51.455 36.7461 54.167 36.8233H66.2818V71.8053C66.2677 72.0618 66.2032 72.3129 66.0918 72.5443C65.9805 72.7757 65.8245 72.9829 65.633 73.154C65.4414 73.325 65.218 73.4566 64.9754 73.5411C64.7329 73.6256 64.4761 73.6614 64.2197 73.6465Z" fill="currentColor"/>
</svg>
