<svg width="89" height="89" viewBox="0 0 89 89" fill="none" xmlns="http://www.w3.org/2000/svg">
<path d="M59.8038 81.0151C58.8271 81.0151 57.8904 80.6271 57.1998 79.9365C56.5092 79.2459 56.1213 78.3093 56.1213 77.3326V67.7581C56.2357 66.6568 56.1178 65.5437 55.7753 64.4907C55.4328 63.4378 54.8732 62.4684 54.1327 61.6452C53.6742 61.1479 53.3616 60.5341 53.229 59.8709C53.0964 59.2076 53.149 58.5207 53.3811 57.8855C53.6131 57.2502 54.0156 56.6911 54.5445 56.2695C55.0733 55.8479 55.708 55.5801 56.379 55.4954C65.3643 54.4275 73.65 51.5551 73.65 35.9781C73.6528 33.0693 72.7943 30.2246 71.1827 27.803C69.6955 25.5737 69.1526 22.8459 69.6729 20.217C70.0048 18.5022 70.0048 16.7396 69.6729 15.0247C66.9154 15.957 64.3191 17.3111 61.9764 19.0386C61.5335 19.3532 61.0265 19.5658 60.4917 19.6613C59.9569 19.7568 59.4076 19.7328 58.8831 19.591C52.2374 17.7132 45.2014 17.7132 38.5557 19.591C38.0313 19.7328 37.482 19.7568 36.9472 19.6613C36.4124 19.5658 35.9054 19.3532 35.4624 19.0386C33.1054 17.2911 30.4816 15.9356 27.6924 15.0247C27.3422 16.7378 27.3422 18.504 27.6924 20.217C28.1751 22.8789 27.6075 25.6243 26.1089 27.8766C24.5043 30.3153 23.6468 33.1694 23.6416 36.0886C23.6416 50.4135 30.5647 54.2433 40.9494 55.569C41.6289 55.6534 42.2714 55.9255 42.8049 56.3548C43.3383 56.7841 43.7414 57.3537 43.969 57.9995C44.1831 58.6261 44.2243 59.2989 44.0882 59.947C43.9521 60.595 43.6438 61.1944 43.1957 61.682C42.4794 62.4476 41.9297 63.3534 41.5811 64.3421C41.2325 65.3309 41.0926 66.3812 41.1703 67.4267V77.3326C41.1703 78.3093 40.7823 79.2459 40.0917 79.9365C39.4011 80.6271 38.4645 81.0151 37.4878 81.0151C36.5112 81.0151 35.5745 80.6271 34.8839 79.9365C34.1933 79.2459 33.8053 78.3093 33.8053 77.3326V75.2336C30.1868 75.6497 26.5214 75.1648 23.1356 73.8221C19.7497 72.4793 16.7483 70.3203 14.3985 67.5372C13.1907 66.1984 11.7415 65.099 10.1268 64.2966C9.65775 64.1757 9.21707 63.9636 8.82996 63.6724C8.44285 63.3812 8.11688 63.0165 7.87068 62.5994C7.62447 62.1822 7.46285 61.7206 7.39503 61.241C7.32721 60.7613 7.35454 60.273 7.47543 59.8039C7.59633 59.3348 7.80844 58.8942 8.09965 58.507C8.39085 58.1199 8.75546 57.794 9.17264 57.5478C9.58982 57.3016 10.0514 57.1399 10.5311 57.0721C11.0107 57.0043 11.499 57.0316 11.9681 57.1525C14.8008 58.1845 17.332 59.9057 19.3331 62.1607C23.0156 65.8432 26.6981 69.0838 33.6948 67.7581C33.5718 65.781 33.8602 63.7998 34.5418 61.9398C26.9559 60.0249 16.1293 54.5748 16.1293 36.1623C16.1196 31.8008 17.4009 27.5341 19.8118 23.8995C20.2596 23.2286 20.4311 22.4107 20.2905 21.6164C19.5464 17.6414 19.9685 13.536 21.5058 9.79556C21.7146 9.29682 22.0308 8.8502 22.4318 8.48743C22.8327 8.12465 23.3086 7.85463 23.8257 7.69654C25.0778 7.32829 29.5704 6.59179 38.077 12.1155C44.9632 10.4584 52.1443 10.4584 59.0304 12.1155C67.537 6.59179 72.0297 7.29146 73.2449 7.69654C73.762 7.85463 74.2379 8.12465 74.6389 8.48743C75.0398 8.8502 75.356 9.29682 75.5649 9.79556C77.1052 13.5482 77.5273 17.6662 76.7801 21.6532C76.7047 22.0125 76.7018 22.3831 76.7713 22.7435C76.8409 23.1039 76.9816 23.4468 77.1852 23.7522C79.603 27.3972 80.8847 31.6778 80.8677 36.0518C80.8677 54.7221 70.1148 60.1353 62.4552 61.8293C63.1299 63.8053 63.4053 65.8957 63.2653 67.9791V77.3326C63.267 78.2722 62.9095 79.1768 62.266 79.8614C61.6225 80.546 60.7416 80.9587 59.8038 81.0151Z" fill="currentColor"/>
</svg>
