<svg width="87" height="87" viewBox="0 0 87 87" fill="none" xmlns="http://www.w3.org/2000/svg">
<path d="M43.21 86.4199C42.6414 86.4238 42.0778 86.2955 41.5514 86.0426C41.025 85.7896 40.5462 85.4168 40.1425 84.9456L6.57282 45.3947C2.36197 40.3882 0 33.6289 0 26.5852C0 19.5414 2.36197 12.7821 6.57282 7.77561C10.8166 2.79622 16.5652 0 22.5584 0C28.5515 0 34.3002 2.79622 38.5439 7.77561L43.21 13.266L47.8761 7.77561C52.1198 2.79622 57.8685 0 63.8616 0C69.8548 0 75.6034 2.79622 79.8472 7.77561C84.058 12.7821 86.42 19.5414 86.42 26.5852C86.42 33.6289 84.058 40.3882 79.8472 45.3947L46.2775 84.9456C45.8738 85.4168 45.395 85.7896 44.8686 86.0426C44.3422 86.2955 43.7786 86.4238 43.21 86.4199Z" fill="currentColor"/>
</svg>
