<svg width="89" height="89" viewBox="0 0 89 89" fill="none" xmlns="http://www.w3.org/2000/svg">
<path d="M85.5322 36.1364L47.6763 1.30741C47.2199 0.893134 46.6769 0.564317 46.0785 0.339923C45.4802 0.115529 44.8384 0 44.1903 0C43.5421 0 42.9003 0.115529 42.302 0.339923C41.7037 0.564317 41.1606 0.893134 40.7042 1.30741L2.84835 36.1806C1.93233 37.0119 1.20888 37.9987 0.720014 39.0837C0.231146 40.1687 -0.0134031 41.3303 0.000566435 42.5011V79.5401C-0.00323793 81.8028 0.956896 83.9806 2.68325 85.6251C4.4096 87.2696 6.77073 88.2556 9.2804 88.38H79.1001C81.6098 88.2556 83.9709 87.2696 85.6973 85.6251C87.4236 83.9806 88.3838 81.8028 88.38 79.5401V42.5011C88.3839 40.1273 87.3627 37.8451 85.5322 36.1364ZM34.3703 79.5401V53.0206H54.0102V79.5401H34.3703ZM78.56 79.5401H63.8301V48.6006C63.8301 47.4284 63.3128 46.3042 62.392 45.4753C61.4712 44.6464 60.2224 44.1807 58.9202 44.1807H29.4604C28.1582 44.1807 26.9093 44.6464 25.9885 45.4753C25.0677 46.3042 24.5504 47.4284 24.5504 48.6006V79.5401H9.8205V42.3243L44.1903 10.7219L78.56 42.5011V79.5401Z" fill="currentColor"/>
</svg>
