<svg width="86" height="86" viewBox="0 0 86 86" fill="none" xmlns="http://www.w3.org/2000/svg">
<path d="M43 7.16669C35.9128 7.16669 28.9848 9.26828 23.092 13.2057C17.1993 17.1431 12.6064 22.7395 9.89429 29.2872C7.18215 35.8349 6.47253 43.0398 7.85517 49.9908C9.23781 56.9417 12.6506 63.3266 17.662 68.338C22.6734 73.3494 29.0583 76.7622 36.0092 78.1448C42.9602 79.5275 50.1651 78.8179 56.7128 76.1057C63.2605 73.3936 68.8569 68.8007 72.7943 62.908C76.7317 57.0152 78.8333 50.0872 78.8333 43C78.8333 38.2943 77.9064 33.6347 76.1057 29.2872C74.3049 24.9397 71.6654 20.9895 68.338 17.662C65.0105 14.3346 61.0603 11.6951 56.7128 9.89434C52.3653 8.09354 47.7057 7.16669 43 7.16669ZM52.7108 47.6225C53.0467 47.9556 53.3132 48.352 53.4952 48.7886C53.6771 49.2253 53.7708 49.6936 53.7708 50.1667C53.7708 50.6397 53.6771 51.1081 53.4952 51.5448C53.3132 51.9814 53.0467 52.3777 52.7108 52.7109C52.3777 53.0467 51.9814 53.3133 51.5447 53.4952C51.108 53.6771 50.6397 53.7708 50.1666 53.7708C49.6936 53.7708 49.2252 53.6771 48.7886 53.4952C48.3519 53.3133 47.9556 53.0467 47.6225 52.7109L43 48.0525L38.3775 52.7109C38.0444 53.0467 37.648 53.3133 37.2114 53.4952C36.7747 53.6771 36.3064 53.7708 35.8333 53.7708C35.3603 53.7708 34.8919 53.6771 34.4552 53.4952C34.0186 53.3133 33.6223 53.0467 33.2891 52.7109C32.9533 52.3777 32.6867 51.9814 32.5048 51.5448C32.3229 51.1081 32.2292 50.6397 32.2292 50.1667C32.2292 49.6936 32.3229 49.2253 32.5048 48.7886C32.6867 48.352 32.9533 47.9556 33.2891 47.6225L37.9475 43L33.2891 38.3775C32.6144 37.7028 32.2353 36.7876 32.2353 35.8334C32.2353 34.8791 32.6144 33.9639 33.2891 33.2892C33.9639 32.6144 34.8791 32.2354 35.8333 32.2354C36.7876 32.2354 37.7027 32.6144 38.3775 33.2892L43 37.9475L47.6225 33.2892C48.2972 32.6144 49.2124 32.2354 50.1666 32.2354C51.1209 32.2354 52.0361 32.6144 52.7108 33.2892C53.3856 33.9639 53.7646 34.8791 53.7646 35.8334C53.7646 36.7876 53.3856 37.7028 52.7108 38.3775L48.0525 43L52.7108 47.6225Z" fill="currentColor"/>
</svg>
