<svg width="86" height="86" viewBox="0 0 86 86" fill="none" xmlns="http://www.w3.org/2000/svg">
<path d="M66.8946 85.9778C66.2054 85.9807 65.5257 85.81 64.9123 85.4801L42.9354 73.4006L20.9584 85.4801C20.2448 85.8741 19.4402 86.05 18.6361 85.9878C17.832 85.9255 17.0606 85.6277 16.4097 85.1281C15.7588 84.6286 15.2545 83.9473 14.954 83.1618C14.6535 82.3762 14.569 81.518 14.71 80.6845L19.0193 55.2135L1.26531 37.1168C0.711396 36.5364 0.318456 35.8087 0.128662 35.0117C-0.0611318 34.2146 -0.0406154 33.3783 0.18801 32.5926C0.437771 31.7885 0.897204 31.0741 1.51417 30.5303C2.13114 29.9865 2.88093 29.6352 3.67847 29.5162L28.241 25.7611L39.0571 2.55213C39.4099 1.78722 39.9609 1.14214 40.6468 0.690767C41.3327 0.239397 42.1258 0 42.9354 0C43.7449 0 44.538 0.239397 45.2239 0.690767C45.9098 1.14214 46.4608 1.78722 46.8136 2.55213L57.759 25.7159L82.3215 29.4709C83.1191 29.5899 83.8689 29.9413 84.4858 30.4851C85.1028 31.0288 85.5622 31.7433 85.812 32.5474C86.0406 33.3331 86.0611 34.1694 85.8713 34.9664C85.6815 35.7635 85.2886 36.4912 84.7347 37.0715L66.9807 55.1682L71.29 80.6393C71.4438 81.4875 71.3633 82.3641 71.0578 83.1658C70.7524 83.9675 70.2348 84.6606 69.5663 85.1634C68.786 85.7375 67.8464 86.0239 66.8946 85.9778Z" fill="#FFD60A"/>
</svg>
