<svg width="89" height="89" viewBox="0 0 89 89" fill="none" xmlns="http://www.w3.org/2000/svg">
<path d="M55.2348 58.9172H33.1408C32.1642 58.9172 31.2276 59.3051 30.537 59.9957C29.8465 60.6863 29.4585 61.6229 29.4585 62.5995C29.4585 63.5761 29.8465 64.5127 30.537 65.2033C31.2276 65.8939 32.1642 66.2818 33.1408 66.2818H55.2348C56.2114 66.2818 57.148 65.8939 57.8386 65.2033C58.5291 64.5127 58.9171 63.5761 58.9171 62.5995C58.9171 61.6229 58.5291 60.6863 57.8386 59.9957C57.148 59.3051 56.2114 58.9172 55.2348 58.9172Z" fill="currentColor"/>
<path d="M33.1408 51.5525H44.1878C45.1644 51.5525 46.101 51.1646 46.7916 50.474C47.4822 49.7834 47.8701 48.8468 47.8701 47.8702C47.8701 46.8936 47.4822 45.957 46.7916 45.2664C46.101 44.5758 45.1644 44.1879 44.1878 44.1879H33.1408C32.1642 44.1879 31.2276 44.5758 30.537 45.2664C29.8465 45.957 29.4585 46.8936 29.4585 47.8702C29.4585 48.8468 29.8465 49.7834 30.537 50.474C31.2276 51.1646 32.1642 51.5525 33.1408 51.5525Z" fill="currentColor"/>
<path d="M72.689 30.6737L52.6572 8.57978C52.3129 8.19832 51.8926 7.89314 51.4233 7.68386C50.954 7.47457 50.4461 7.36583 49.9323 7.36462H24.156C22.9325 7.35002 21.7182 7.57657 20.5823 8.03132C19.4464 8.48608 18.4112 9.16013 17.5358 10.015C16.6605 10.8698 15.9621 11.8888 15.4805 13.0135C14.9989 14.1383 14.7437 15.347 14.7292 16.5704V71.8053C14.7437 73.0287 14.9989 74.2374 15.4805 75.3622C15.9621 76.4869 16.6605 77.5059 17.5358 78.3607C18.4112 79.2156 19.4464 79.8896 20.5823 80.3444C21.7182 80.7991 22.9325 81.0257 24.156 81.0111H64.2197C65.4431 81.0257 66.6575 80.7991 67.7934 80.3444C68.9293 79.8896 69.9645 79.2156 70.8398 78.3607C71.7152 77.5059 72.4136 76.4869 72.8952 75.3622C73.3767 74.2374 73.632 73.0287 73.6464 71.8053V33.1409C73.644 32.2283 73.3029 31.3491 72.689 30.6737ZM51.5525 18.4116L61.6421 29.4586H54.2774C53.8918 29.4353 53.5147 29.3354 53.1681 29.1648C52.8215 28.9942 52.5123 28.7563 52.2587 28.4649C52.005 28.1736 51.8119 27.8346 51.6907 27.4678C51.5694 27.101 51.5224 26.7137 51.5525 26.3286V18.4116ZM64.2197 73.6464H24.156C23.8996 73.6614 23.6428 73.6255 23.4003 73.541C23.1578 73.4565 22.9343 73.325 22.7428 73.1539C22.5512 72.9829 22.3953 72.7757 22.2839 72.5443C22.1726 72.3128 22.108 72.0617 22.0939 71.8053V16.5704C22.108 16.314 22.1726 16.0629 22.2839 15.8314C22.3953 15.6 22.5512 15.3928 22.7428 15.2218C22.9343 15.0508 23.1578 14.9192 23.4003 14.8347C23.6428 14.7502 23.8996 14.7143 24.156 14.7293H44.1878V26.3286C44.1284 29.0411 45.1443 31.6669 47.0139 33.6331C48.8835 35.5993 51.4549 36.7461 54.1669 36.8232H66.2818V71.8053C66.2677 72.0617 66.2031 72.3128 66.0918 72.5443C65.9804 72.7757 65.8245 72.9829 65.6329 73.1539C65.4413 73.325 65.2179 73.4565 64.9754 73.541C64.7329 73.6255 64.4761 73.6614 64.2197 73.6464Z" fill="currentColor"/>
</svg>
